<svg xmlns="http://www.w3.org/2000/svg" viewBox="0 0 900 620">
<defs><linearGradient id="g" x1="0" x2="1"><stop stop-color="#1a2d4d"/><stop offset="1" stop-color="#070d18"/></linearGradient><filter id="blur"><feGaussianBlur stdDeviation="3"/></filter></defs>
<rect width="900" height="620" fill="url(#g)"/>
<circle cx="140" cy="110" r="90" fill="#d9b56d" opacity=".16"/>
<circle cx="770" cy="510" r="130" fill="#d9b56d" opacity=".11"/>
<g opacity=".24" stroke="#fff" stroke-width="2"><path d="M70 80 L95 560"/><path d="M160 80 L185 560"/><path d="M250 80 L275 560"/><path d="M340 80 L365 560"/><path d="M430 80 L455 560"/><path d="M520 80 L545 560"/><path d="M610 80 L635 560"/><path d="M700 80 L725 560"/><path d="M790 80 L815 560"/></g><rect x="90" y="120" width="720" height="360" rx="34" fill="#ffffff" opacity=".06" stroke="#ffffff" stroke-opacity=".18"/>
<rect x="125" y="160" width="260" height="210" rx="18" fill="#020711" opacity=".55"/>
<path d="M435 170h290M435 225h230M435 280h260M435 335h190" stroke="#d9b56d" stroke-width="18" stroke-linecap="round" opacity=".7"/>
<circle cx="255" cy="255" r="72" fill="#d9b56d" opacity=".22"/>
<path d="M215 275c35-55 68-55 105 0" stroke="#d9b56d" stroke-width="18" fill="none" stroke-linecap="round"/>
<text x="450" y="442" text-anchor="middle" fill="#f4f1e7" font-family="Arial" font-size="44" font-weight="700">عمارة شبرا</text>
<text x="450" y="515" text-anchor="middle" fill="#d9b56d" font-family="Arial" font-size="28" font-weight="700">CASE FILE / CASE-101</text>
</svg>